# xmcd CD database file
#
# Track frame offsets:
#	180
#	18496
#	28573
#	49655
#	71568
#	87236
#	110402
#	130755
#	160932
#	179159
#	202244
#	224019
#	252425
#
# Disc length: 3601 seconds
#
# Revision: 0
# Processed by: cddbd v1.5.1PL2 Copyright (c) Steve Scherf et al.
# Submitted via: CDex 1.51
#
DISCID=c30e0f0d
DTITLE=Mike's Music Train - Footsteps
DYEAR=1997
DGENRE=Blues
TTITLE0=Lover, come back to me
TTITLE1=S' Wonderful
TTITLE2=Lover man
TTITLE3=Groovin' high
TTITLE4=What kind of fool I am
TTITLE5=Foot
TTITLE6=007 James Bond Theme
TTITLE7=Funky Friends
TTITLE8=Hanky Panky
TTITLE9=Plum Island
TTITLE10=In the evening
TTITLE11=E.G. Blues
TTITLE12=Porscha
EXTD=YEAR: 1997
EXTT0=
EXTT1=
EXTT2=
EXTT3=
EXTT4=
EXTT5=
EXTT6=
EXTT7=
EXTT8=
EXTT9=
EXTT10=
EXTT11=
EXTT12=
PLAYORDER=
